<svg width="24" height="24" viewBox="0 0 24 24" fill="none" xmlns="http://www.w3.org/2000/svg">
<path d="M11.8506 0.75C18.1002 0.75 23.1855 5.83525 23.1855 12.0849" stroke="white" stroke-miterlimit="10"/>
<path d="M11.8506 4.38574C16.094 4.38574 19.5498 7.83815 19.5498 12.0849" stroke="white" stroke-miterlimit="10"/>
<path d="M11.8506 8.43896C13.8602 8.43896 15.4965 10.0752 15.4965 12.0849" stroke="white" stroke-miterlimit="10"/>
<path d="M4.07979 3.59473L2.97651 4.71498C-0.00063742 7.71589 0.00954658 12.5601 2.99688 15.5508L8.44876 21.0027C9.94922 22.5032 11.9113 23.25 13.8769 23.25C15.8424 23.25 17.8079 22.4998 19.305 21.0027L20.3947 19.913L15.9409 15.4592L14.3589 17.0411C13.9855 17.4145 13.4933 17.6046 13.001 17.6046C12.5088 17.6046 12.02 17.4179 11.6432 17.0411L7.40998 12.8079C6.40855 11.8065 6.40855 10.1804 7.40998 9.179L8.53702 8.05196L4.08318 3.59812L4.07979 3.59473Z" stroke="white" stroke-miterlimit="10"/>
</svg>
