<svg width="24" height="24" viewBox="0 0 24 24" fill="none" xmlns="http://www.w3.org/2000/svg">
<path d="M8.79741 4.58401C10.2228 2.028 10.9349 0.75 12.0003 0.75C13.0657 0.75 13.7778 2.028 15.2032 4.58401L15.5722 5.24551C15.9772 5.97227 16.1797 6.33564 16.4947 6.57527C16.8097 6.81489 17.2034 6.90377 17.9909 7.08152L18.7064 7.24352C21.474 7.87015 22.8566 8.1829 23.1862 9.24153C23.5147 10.299 22.572 11.4027 20.6853 13.6088L20.1971 14.1792C19.6616 14.8058 19.3927 15.1197 19.2723 15.5067C19.1519 15.8948 19.1924 16.3133 19.2734 17.1492L19.3477 17.9108C19.6323 20.8549 19.7752 22.3264 18.9134 22.9801C18.0517 23.6348 16.7557 23.0374 14.1659 21.8449L13.4943 21.5367C12.7586 21.1969 12.3907 21.0282 12.0003 21.0282C11.6099 21.0282 11.242 21.1969 10.5063 21.5367L9.83579 21.8449C7.24491 23.0374 5.94891 23.6337 5.08828 22.9812C4.2254 22.3264 4.36828 20.8549 4.6529 17.9108L4.72715 17.1503C4.80815 16.3133 4.84865 15.8948 4.72715 15.5078C4.6079 15.1197 4.33903 14.8058 3.80352 14.1803L3.31527 13.6088C1.42864 11.4038 0.485889 10.3002 0.81439 9.24153C1.14402 8.1829 2.52777 7.86902 5.29528 7.24352L6.01078 7.08152C6.79716 6.90377 7.18978 6.81489 7.50591 6.57527C7.82091 6.33564 8.02341 5.97227 8.42841 5.24551L8.79741 4.58401Z" stroke="white"/>
</svg>
